<svg xmlns="http://www.w3.org/2000/svg" fill="none" viewBox="0 0 244 29" role="img" aria-label="SkyFrame">
  <g clip-path="url(#skyframe-logo-clip)" fill="#3c2415">
    <path d="M7.78885 16.5497C2.50763 15.7526 0.379944 12.716 0.379944 8.92016C0.379944 1.89791 7.25693 0 16.0716 0C28.1538 0 33.0931 3.15052 33.5111 8.8822H21.0489C21.0489 7.78141 20.441 7.13613 19.4151 6.71859C18.4653 6.30105 17.2495 6.14921 16.0716 6.14921C12.8801 6.14921 11.7783 6.90838 11.7783 8.08508C11.7783 8.84424 12.1202 9.3377 13.1841 9.48953L25.9882 11.3874C31.4214 12.1846 34.7269 14.6898 34.7269 19.2827C34.7269 25.9254 29.3317 29 17.2874 29C9.08066 29 0 27.8613 0 19.8901H12.9181C12.9561 20.7631 13.336 21.4084 14.0579 21.8259C14.8558 22.2055 16.0716 22.3953 17.7054 22.3953C21.0489 22.3953 21.9608 21.5223 21.9608 20.1937C21.9608 19.3966 21.5048 18.6374 20.023 18.3717L7.78885 16.5497Z"/>
    <path d="M51.5584 17.6505L48.0249 20.7631V28.051H37.3105V0.948953H48.0249V10.5144L57.9794 0.948953H72.1893L60.0691 11.4254L73.2152 28.051H58.9673L51.5584 17.6505Z"/>
    <path d="M81.46 20.4215L69.4158 0.948953H81.6499L86.8172 11.5772L91.9844 0.948953H104.219L92.1744 20.4215V28.051H81.46V20.4215Z"/>
    <path d="M104.599 0.948953H125.609V4.4411H108.626V12.4503H124.812V15.9424H108.626V28.051H104.599V0.948953Z"/>
    <path d="M128.421 0.948953H145.215C150.648 0.948953 152.623 4.70681 152.623 8.16099C152.623 11.6152 151.066 13.8927 148.064 14.8416V14.9175C150.496 15.2592 151.864 17.4987 152.016 20.6872C152.206 25.6976 152.434 27.0641 153.307 28.051H149.052C148.406 27.2919 148.406 26.1152 148.216 22.8887C147.912 18.0301 146.316 16.5497 142.973 16.5497H132.448V28.051H128.421V0.948953ZM143.695 13.0576C147.646 13.0576 148.596 10.7042 148.596 8.76832C148.596 6.18717 147.038 4.4411 143.809 4.4411H132.448V13.0576H143.695Z"/>
    <path d="M174.166 20.1558H160.868L157.411 28.051H153.079L165.352 0.948953H169.949L182.221 28.051H177.624L174.166 20.1558ZM167.479 4.66885L162.388 16.6636H172.685L167.479 4.66885Z"/>
    <path d="M211.325 0.948953H216.91V28.051H212.883V5.57984H212.807L202.244 28.051H198.673L188.148 6.03534H188.072V28.051H184.045V0.948953H189.706L200.458 23.4202L211.325 0.948953Z"/>
    <path d="M221.807 0.948953H243.616V4.4411H225.835V12.2984H243.084V15.7906H225.835V24.5589H243.996V28.051H221.807V0.948953Z"/>
  </g>
  <defs>
    <clipPath id="skyframe-logo-clip">
      <rect width="244" height="29" fill="white"/>
    </clipPath>
  </defs>
</svg>
