<?xml version="1.0" encoding="UTF-8"?><svg id="Layer_1" xmlns="http://www.w3.org/2000/svg" viewBox="0 0 150 150"><defs><style>.cls-1{fill:#1a171b;}.cls-2{fill:#fff;}.cls-3{fill:#c90019;}</style></defs><path class="cls-2" d="M77.58,20.79c11.88,1.24,21.14,11.27,21.15,23.48,0,13.04-10.56,23.62-23.61,23.62-13.04,0-23.62-10.56-23.62-23.61,0-13.04,10.56-23.62,23.61-23.62.84,0,1.66.05,2.48.13ZM78.8,66.24c12.13-2.04,20.31-13.52,18.27-25.65-1.7-10.09-9.93-17.45-19.63-18.47-1.96-.21-3.98-.15-6.02.19-2.42.41-4.68,1.19-6.73,2.28,10.69,3.63,16.44,9.14,16.84,14.79.2,3.49-1.42,6.01-3.56,8.07l15.12-1.06c.43-.03.56.47.04.62l-36.07,10.34c3.67,5.06,9.37,8.42,15.7,9.08,1.96.21,3.98.15,6.02-.19ZM68.88,44.79c1.98-7.43-.28-15.22-5.68-19.35-7.35,4.65-11.59,13.4-10.06,22.52.5,3.01,1.6,5.78,3.14,8.21,5.75-1.6,10.8-4.63,12.6-11.38Z"/><path class="cls-3" d="M97.08,40.58c2.04,12.13-6.14,23.62-18.27,25.65-2.04.34-4.06.4-6.02.19-6.33-.66-12.03-4.03-15.7-9.08l36.07-10.34c.52-.15.38-.65-.04-.62l-15.12,1.06c2.13-2.06,3.75-4.58,3.56-8.07-.4-5.65-6.15-11.16-16.84-14.79,2.06-1.09,4.31-1.88,6.73-2.28,2.04-.34,4.06-.4,6.02-.19,9.71,1.02,17.94,8.37,19.63,18.47ZM53.14,47.96c.5,3.01,1.6,5.78,3.14,8.21,5.75-1.6,10.8-4.63,12.6-11.38,1.98-7.43-.28-15.22-5.68-19.35-7.35,4.65-11.59,13.4-10.06,22.52Z"/><polygon class="cls-1" points="127.68 99.21 127.68 91.45 119.9 91.45 119.9 99.21 115.63 99.21 115.63 80.72 119.9 80.72 119.9 88.08 127.68 88.08 127.68 80.72 131.99 80.72 131.99 99.21 127.68 99.21"/><path class="cls-1" d="M35.59,80.72v11.58c0,1.28.19,2.39.56,3.29.37.89.9,1.63,1.59,2.21.69.58,1.53,1,2.49,1.26.97.27,2.07.4,3.26.4s2.27-.14,3.22-.4c.93-.26,1.73-.69,2.37-1.26.64-.57,1.14-1.31,1.49-2.21.35-.9.53-2.01.53-3.29v-11.58h-4v11.46c0,1.17-.29,2.11-.86,2.8-.58.7-1.51,1.06-2.76,1.06s-2.15-.36-2.74-1.06c-.58-.69-.88-1.63-.88-2.8v-11.46h-4.27Z"/><path class="cls-1" d="M23.26,99.21v-15.04h-5.03v-3.45h14.35v1.66c0,.99-.81,1.8-1.8,1.8h-3.26v15.04h-4.27Z"/><rect class="cls-1" x="91.95" y="80.71" width="4.27" height="18.5"/><path class="cls-1" d="M77.71,90.59l.15.18,5.46,7.04c.69.9,1.74,1.41,2.88,1.41h3.4l-7.82-9.95-.12-.15.11-.15,6.43-8.26h-4.45l-5.9,7.97-.15.19v-.33s0-7.83,0-7.83h-4.27v18.5h4.27v-8.62Z"/><path class="cls-1" d="M67.86,99.21c-1.27,0-2.46-.67-3.11-1.75l-3.33-5.49h-2.11v7.25h-4.27v-18.49h7.62c1.96,0,3.49.51,4.55,1.52,1.06,1.01,1.6,2.38,1.6,4.09,0,.87-.23,1.75-.69,2.61-.45.85-1.25,1.55-2.37,2.07l-.25.11,5.19,8.08h-2.83ZM59.32,89.18h2.49c.9,0,1.58-.25,2.03-.73.45-.48.67-1.1.67-1.85s-.22-1.4-.65-1.88c-.44-.49-1.13-.73-2.05-.73h-2.49v5.2Z"/><path class="cls-1" d="M99.73,98.42v-3.55c1.36.63,3.11,1.25,4.93,1.25,2.09,0,3.14-.72,3.14-2.09,0-1.61-1.42-1.79-4.26-3.01-1.93-.86-3.78-2.21-3.78-5.3,0-3.61,2.75-5.3,6.56-5.3,2.02,0,3.75.48,4.71.83v3.46c-.97-.45-2.69-.98-4.41-.98-1.87,0-2.75.69-2.75,1.88,0,1.25,1.06,1.64,2.96,2.35,2.45,1.22,5.29,1.76,5.29,5.93,0,3.61-2.87,5.57-6.71,5.57-2.36,0-4.23-.42-5.68-1.04Z"/><path class="cls-1" d="M106.41,123.35v-18.5h11.58v1.68c0,.98-.8,1.78-1.78,1.78h-5.53v3.98h6.21v3.09h-6.21v4.53h7.31v3.45h-11.58Z"/><path class="cls-1" d="M64.15,123.35v-18.5h2.08c1.21,0,2.2.99,2.2,2.2v12.97h6.82v3.33h-11.1Z"/><rect class="cls-1" x="37.69" y="104.86" width="4.27" height="18.48"/><path class="cls-1" d="M58.71,123.35c-1.27,0-2.46-.67-3.11-1.75l-3.32-5.49h-2.11v7.25h-4.27v-18.49h7.62c1.96,0,3.49.51,4.55,1.52,1.06,1.01,1.6,2.38,1.6,4.09,0,.87-.23,1.75-.69,2.61-.45.85-1.25,1.55-2.37,2.07l-.25.11,5.19,8.08h-2.83ZM50.16,113.32h2.49c.9,0,1.58-.25,2.03-.73.45-.48.67-1.1.67-1.85s-.22-1.4-.65-1.88c-.44-.49-1.13-.73-2.05-.73h-2.49v5.2Z"/><path class="cls-1" d="M28.28,104.85h-4.91l-6.98,18.5h3.08c.78,0,1.47-.5,1.72-1.24l.72-2.17h7.5l1.1,3.41h4.63l-6.86-18.5ZM23,116.61l1.68-4.67c.37-1.05.75-2.16.99-2.98h.06c.22.85.59,1.9.96,2.98l1.62,4.67h-5.32Z"/><path class="cls-1" d="M121.42,122.57v-3.55c1.36.63,3.11,1.25,4.93,1.25,2.09,0,3.14-.72,3.14-2.09,0-1.61-1.42-1.79-4.26-3.01-1.93-.86-3.78-2.21-3.78-5.3,0-3.61,2.75-5.3,6.56-5.3,2.02,0,3.75.48,4.71.83v3.46c-.97-.45-2.69-.98-4.41-.98-1.87,0-2.75.69-2.75,1.88,0,1.25,1.06,1.64,2.96,2.35,2.45,1.22,5.29,1.76,5.29,5.93,0,3.61-2.87,5.57-6.71,5.57-2.36,0-4.23-.42-5.68-1.04Z"/><path class="cls-1" d="M86.18,104.86h2.65c1.26,0,2.43.65,3.09,1.72l5.16,8.29c.58.92,1.26,2.14,1.66,3h.09c-.06-.83-.09-1.99-.09-2.82v-10.18h3.75v18.49h-4.69l-6.27-10c-.58-.92-1.2-2.02-1.63-2.85h-.06c.03.8.09,1.75.09,2.64v10.21h-3.75v-18.49Z"/><rect class="cls-1" x="78" y="104.86" width="4.27" height="18.48"/></svg>