<svg width="100" height="100" viewBox="0 0 100 100" fill="none" xmlns="http://www.w3.org/2000/svg">
<rect width="100" height="100" fill="#D71A21"/>
<path d="M54.7709 25.229C54.1187 26.0704 53.7629 27.1039 53.7591 28.1686V37.3973C53.7108 38.0961 53.4456 38.7467 53.012 39.3009C52.7709 39.542 51.3495 40.8191 51.229 40.9638L52.0242 40.9879C52.2891 40.7468 55.0362 38.3131 55.301 37.976C56.0963 37.1084 56.554 35.9759 56.554 34.7953V25.9278C56.5427 25.4802 56.62 25.0349 56.7813 24.6172C56.9426 24.1996 57.1848 23.8179 57.494 23.4941C57.8311 23.1324 58.8916 22.2411 59.0841 22.0241L58.241 22C58.0722 22.217 55.0603 24.9396 54.7709 25.229ZM48 58.7948L51.3495 61.7107H53.5903C55.7346 61.7107 57.807 60.8672 59.3252 59.3494C60.6988 57.9758 61.2047 56.12 61.2047 54.3852V49.5902C61.1806 48.5059 60.7225 47.4695 59.9035 46.747C59.7588 46.6023 58.7711 45.6624 58.7711 45.6624V49.349C58.7711 49.349 59.8553 50.4578 60.0482 50.6744C61.036 51.7349 61.036 53.6626 57.8793 56.7228C57.3252 57.2524 55.7591 58.7465 53.5907 58.7465L48 58.7948Z" fill="white"/>
<path d="M57.5904 39.4938C57.2287 39.8792 56.8674 40.8433 56.8674 41.7105V43.5176H58.6987C59.4221 43.5176 60.3616 42.8675 60.5545 42.5299V40.7223C60.826 41.1184 61.1596 41.4682 61.5423 41.7583C61.7352 41.5172 63.4218 39.4934 64.819 39.4693C67.1567 39.4452 66.6266 42.4089 65.6867 43.3489C65.3736 43.6619 64.0001 44.9149 63.5665 45.3244C62.4577 46.3849 60.5541 45.879 60.5541 43.156C60.5541 43.156 58.5304 45.0837 58.2169 45.3485C57.9039 45.6137 56.8674 46.7221 56.8674 46.7221V51.5175C56.8674 53.8065 56.1204 54.5777 55.4939 55.2765C55.2527 55.5413 52.6748 57.9031 52.3136 58.1679L51.4696 58.192C51.4696 58.192 52.9879 56.8184 53.2772 56.5054C53.6144 56.1437 54.0243 55.4207 54.0243 54.216C54.0243 53.9029 53.9761 46.6979 53.9761 46.6979H42.2168C38.1206 46.6979 37.253 42.1682 37.2289 40.9389V36.3854C37.2289 35.6384 36.7471 34.3854 36 34H37.157C37.3012 34.0478 38.0242 34.3371 38.0242 37.1321C38.0242 37.1321 37.976 40.3615 37.976 40.5539C37.976 41.9757 39.1084 43.59 40.7231 43.59L54.0238 43.5659C54.0238 43.2042 54.3855 41.8552 55.0362 41.1322C55.3978 40.7227 58.2651 38.1203 58.5786 37.8555H59.4217C59.3011 37.976 57.9039 39.2045 57.6145 39.5421L57.5904 39.4938ZM61.9522 42.2164C62.2964 42.6856 62.6749 43.1286 63.0846 43.5418C64.5301 44.6983 65.2048 43.4453 64.2412 42.1441C63.8554 41.6145 62.3854 41.7587 61.9518 42.2164H61.9522Z" fill="white"/>
<path d="M47.0959 50.4337C47.0959 51.0839 45.0476 52.795 44.927 52.8915C44.7828 52.1926 44.2523 51.4455 42.7345 49.9032L44.9752 47.6624C46.4935 49.1807 47.0959 49.5182 47.0959 50.4337ZM50.9995 24.6748C51.4573 25.1325 52.4209 26.3373 51.8426 26.9397C51.4063 27.3789 50.9726 27.8207 50.5414 28.265C50.4932 27.9757 49.7465 27.2531 49.7465 27.2531V29.6868C49.7224 30.6746 49.3607 30.9398 49.3607 30.9398C49.3607 30.9398 51.1679 32.7224 51.1679 35.036V37.3973C51.1786 37.6188 51.1434 37.8402 51.0647 38.0476C50.9859 38.255 50.8652 38.4439 50.7102 38.6025C50.5414 38.795 48.8789 40.482 48.6137 40.6986C48.2283 41.0362 47.7465 41.2286 47.2401 41.2045H41.0001C40.0119 41.2045 39 40.4338 39 39.6626C39 39.4697 39.0241 37.3495 39.0241 37.3495C39.3371 37.7107 39.6743 38.1443 40.4455 38.1443C41.072 38.1443 41.6985 37.6625 41.8673 37.4696C42.0361 37.2772 46.5904 32.5541 46.5904 32.5541C46.5904 32.5541 44.4697 30.5781 43.0725 29.6386C42.3973 29.1809 41.4819 29.7591 41.3372 30.3615C40.9036 32.241 41.3372 35.0842 41.3372 35.0842L39.6265 33.3735C38.9277 32.6746 38.9518 31.1086 39.7949 30.2892C39.9154 30.1445 41.1925 28.7468 42.7831 28.7468H45.265C46.9275 28.7468 48.7588 30.4098 48.7588 30.4098C48.9035 30.241 48.9999 30.0481 49.024 29.831C49.024 28.9638 48.9999 26.6749 48.9999 26.6749C47.7469 25.4219 47.5781 24.1206 48.1805 23.5182C49.3129 22.3858 49.7229 22 49.7229 22C49.7229 22 49.6746 23.3736 51 24.6748H50.9995ZM43.1681 37.2048C42.5416 37.855 42.4451 38.0001 41.8668 38.3614H48.903C50.8066 38.3614 50.4213 37.1807 50.0837 36.5783C49.3848 35.3494 47.1682 33.0841 47.1682 33.0841C47.1682 33.0841 43.2886 37.0842 43.1681 37.2048Z" fill="white"/>
<path d="M35.1565 44H34C34 44 35.2289 44.6747 35.2289 46.4337V52.0481C35.2289 55.6865 38.2408 59.0601 41.9034 59.0601H44.9636C46.7948 59.0601 47.4454 58.6261 48.5542 57.6383C48.9633 57.2767 49.4937 56.6743 49.6866 56.4577C50.3131 55.7343 51.012 55.1565 51.012 53.277V51.4457C51.012 49.8551 50.0961 49.2045 49.6384 48.7468C49.2868 48.3997 48.9334 48.0544 48.5783 47.7108V51.4698C48.5783 51.4698 49.3491 52.2888 49.6866 52.554C51.2768 53.807 50.0238 55.9759 48.5301 55.9759H41.8069C39.3492 56.0237 36.0001 53.8311 36.0001 50.1199V47.0843C36.0238 44 35.1561 44 35.1561 44H35.1565Z" fill="white"/>
<path d="M42.9634 50.7712C42.9634 51.4214 40.9151 53.1326 40.795 53.229C40.6503 52.5302 40.1203 51.7831 38.602 50.2408L40.8432 48C42.3374 49.4941 42.9634 49.8313 42.9634 50.7712ZM19.4694 75.7107H15.8551C14.7227 75.7107 14.8191 74.7712 14.6985 73.9755V68.8192C14.6985 68.8192 15.4938 68.7951 16.3851 68.7951C17.3733 68.7951 18.6263 68.6504 19.8311 69.3251C19.5245 68.6772 19.0347 68.1333 18.4222 67.7607C17.8098 67.3882 17.1015 67.2034 16.3851 67.2291H14.7227V65.5661C14.7227 65.5661 14.7227 64.1202 14.361 63.7108H16.7464C18.7951 63.7108 20.3853 63.6866 22.0478 64.7709C22.0478 64.7709 21.7347 62.0483 17.7591 62.0483H10C10 62.0483 11.349 63.2048 11.3008 65.542L11.349 74.9395C11.349 77.3013 12.289 77.3732 12.289 77.3732H19.9276C21.6624 77.3732 22.2648 76.1443 22.2648 75.47L22.2889 74.5783C22.2889 74.5783 21.7347 75.7107 19.4694 75.7107ZM39.8068 74.9154V68.3374C39.8068 65.7832 37.7344 65.108 36.1684 65.108C34.1201 65.108 33.4936 66.8191 33.2288 67.4215C32.7706 65.8314 31.1564 65.1084 29.8551 65.1084C27.3732 65.1084 26.7463 67.4698 26.7463 67.4698C26.7463 67.4698 26.6985 65.1808 24.6984 65.1808H22.7466C22.7466 65.1808 23.879 65.6385 23.879 67.6144V74.9154C23.879 77.325 24.8431 77.3732 24.8431 77.3732H28.0721C27.3009 76.7949 26.8432 75.8791 26.8432 74.8913V68.4097C26.8914 68.1204 27.3728 67.1567 28.7464 67.1567C29.5417 67.1567 30.4093 67.9757 30.3852 68.8916V74.9154C30.3852 77.3491 31.3493 77.3732 31.3493 77.3732H34.5778C33.807 76.7708 33.3489 75.8791 33.3489 74.8913V68.4097C33.5 67.9534 33.8257 67.5754 34.2547 67.3586C34.6838 67.1418 35.1813 67.1037 35.6383 67.2527C36.3613 67.4939 36.8672 68.1445 36.8913 68.9157V74.9154C36.9154 77.3732 37.855 77.3491 37.855 77.3491H41.0844C40.6977 77.0699 40.381 76.7048 40.1594 76.2825C39.9377 75.8602 39.817 75.3923 39.8068 74.9154ZM45.4453 74.9154C45.446 75.3923 45.5574 75.8624 45.7706 76.2889C45.9839 76.7154 46.2932 77.0866 46.6742 77.3732H43.4453C43.4453 77.3732 42.4575 77.3973 42.4575 74.9395V67.5903C42.4575 65.6626 41.3492 65.1567 41.3492 65.1567H43.301C43.9994 65.1567 45.4212 65.1567 45.4212 67.8792V74.8676L45.4453 74.9154ZM55.3729 66.0962C55.3729 66.0962 55.0599 65.229 53.7345 65.229C51.7108 65.229 51.2285 67.6385 51.2285 67.6385C51.0597 65.7349 50.5538 65.1808 49.132 65.1808H47.1802C47.1802 65.1808 48.3126 65.6385 48.3126 67.6144V74.9154C48.3126 77.325 49.2771 77.3732 49.2771 77.3732H52.5056C52.1246 77.0866 51.8153 76.7154 51.602 76.2889C51.3888 75.8624 51.2774 75.3923 51.2767 74.9154V68.9157C51.3491 68.4097 51.6384 67.9516 52.072 67.6868C53.1562 66.9638 54.578 67.1808 55.4211 68.1686L55.3729 66.0962ZM70.3852 66.5302C71.0595 66.5302 71.7101 66.6986 72.2884 67.012V65.1808H69.5899V62.3854C69.0117 63.3013 68.2646 64.1207 67.4211 64.8191C66.5057 65.5661 64.5779 66.5061 64.5779 66.5061L66.6262 66.5302V75.0119C66.6262 77.3732 67.614 77.3732 67.614 77.3732H70.8188C70.4405 77.0988 70.1307 76.7408 69.9133 76.327C69.696 75.9133 69.5771 75.455 69.5658 74.9878V66.5302H70.3852ZM80.1681 70.2169C78.361 72.0964 76.9392 71.807 75.8063 73.2047C75.8063 73.2047 75.9996 75.0842 77.421 75.7348C77.9032 75.9518 79.9029 76.6748 81.18 74.4577V76.4337C81.18 76.4337 80.361 77.3973 77.7345 77.3973C74.5778 77.3973 72.409 74.9154 72.409 71.5422C72.409 68.2168 74.1684 65.1567 77.5174 65.1325C80.7705 65.0843 82.5536 67.735 80.1681 70.2169ZM78.1922 69.4457C78.7222 68.458 79.1562 65.9519 77.325 66.0962C75.2043 66.265 75.6138 71.8794 75.6138 71.8794C76.3127 71.1086 77.3728 70.9398 78.1922 69.4457ZM43.9516 64.193C44.7706 64.1685 45.3971 63.4937 45.3971 62.6989C45.373 61.8795 44.6983 61.253 43.903 61.253C43.1081 61.2771 42.4575 61.9277 42.4575 62.723C42.4575 63.542 43.1322 64.1926 43.9516 64.1926V64.193ZM58.7224 75.976C57.9995 75.976 57.4694 75.2048 57.4694 74.4336C57.4694 71.3976 59.9513 70.964 60.626 70.1687V75.3012C60.313 75.5424 60.0236 75.976 58.7228 75.976H58.7224ZM60.626 68.9876C59.879 70.2892 54.048 70.5781 54.9393 75.0842C55.301 76.8673 56.4816 77.3973 57.9753 77.3973C59.4212 77.3973 60.313 76.6507 60.6742 75.9277C60.8913 77.2772 61.5901 77.3732 61.5901 77.3732H64.8186C64.0479 76.7949 63.5656 75.9036 63.5656 74.9395V68.0726C63.5656 66.4342 61.7585 65.1571 59.8307 65.1571C58.7584 65.1327 57.7052 65.4444 56.8188 66.0484V68.169C56.8188 68.169 57.4935 66.4824 59.156 66.4824C60.7948 66.4824 60.9154 67.3014 60.9154 67.7113C60.9395 68.1449 60.8671 68.6026 60.626 68.9884V68.9876ZM87.3008 74.0482C87.3249 74.9154 86.5537 76.0483 84.9153 76.0483C83.2283 76.0483 82.5536 74.3372 82.5536 74.3372V76.506C83.4694 77.0843 84.53 77.3732 85.6137 77.3732C87.8067 77.3732 90.0475 75.7107 89.9992 73.3731C89.9756 72.6061 89.7148 71.8654 89.2526 71.2529C88.5055 70.2651 87.1557 69.5663 86.096 68.9157C85.4932 68.554 85.1801 67.8792 85.1801 67.6627C85.156 67.2527 85.373 66.4338 86.9873 66.4338C88.5779 66.4338 89.2767 68.1204 89.2767 68.1204V66.0721C88.385 65.4456 87.3003 65.1084 86.192 65.1084C84.2643 65.1084 82.5053 66.3855 82.5536 68.0239C82.5777 69.4698 83.1801 70.3857 84.3607 71.277C84.8915 71.6588 85.447 72.0049 86.0237 72.313C86.9391 72.8193 87.2766 73.4454 87.3008 74.0482Z" fill="white"/>
</svg>
