<svg width="100" height="100" viewBox="0 0 100 100" fill="none" xmlns="http://www.w3.org/2000/svg">
<rect width="100" height="100" fill="white"/>
<g clip-path="url(#clip0_2133_636)">
<path d="M45.5618 26.439C38.6981 25.5006 35.2131 29.3206 30.4069 32.8322L13.976 45.7355L13.9707 45.7382L17.1341 47.4102C17.1394 47.4155 17.1474 47.4182 17.1553 47.4235C21.2704 49.4465 26.9936 48.7553 30.8907 45.8684L37.8288 40.3551L40.4818 38.2445L53.7041 27.7389L45.5618 26.439Z" fill="#7BCBE2"/>
<path d="M13.9766 45.7364L17.1346 47.4138C17.1426 47.4165 17.1479 47.4218 17.1559 47.4245C21.2709 49.4501 26.9968 48.7589 30.8939 45.8694L37.8294 40.3587L40.485 38.248L13.9766 45.7364Z" fill="#089BC9"/>
<path d="M73.62 34.4093L64.7998 32.8224C64.7998 32.8224 58.6592 31.363 53.5287 35.3371C53.5287 35.3371 49.7406 38.1549 46.9468 40.3347L40.7344 45.2552L26.3637 56.6858L26.244 56.7815L30.5824 59.0756C34.7 61.1092 40.4366 60.4207 44.339 57.5285L57.1892 47.3499L67.5512 39.1889L73.62 34.4093Z" fill="#8F174F"/>
<path d="M46.9489 40.334C49.7375 38.1542 53.5255 35.3364 53.5255 35.3364C54.4958 34.5841 55.5033 34.0285 56.4975 33.6191L40.4866 38.2472L37.831 40.3552L30.8982 45.8685C27.0011 48.7581 21.2752 49.4492 17.1602 47.4236C20.6691 49.5263 26.1186 50.0101 34.3274 47.5619L39.9337 45.8925L40.7392 45.2545L46.9489 40.334ZM69.5337 45.2359C72.1787 43.165 74.1751 41.6658 76.1608 40.7752L58.2387 46.5225L57.186 47.3519L44.3358 57.5278C40.4335 60.42 34.6969 61.1111 30.5792 59.0749C36.9059 62.5493 46.6485 59.9947 54.8414 57.0812L55.3305 56.6851C55.3278 56.6851 69.0446 45.5894 69.5337 45.2359ZM90.6086 56.7808C83.4153 54.6914 81.2568 56.0126 72.7822 58.5618H72.7795L72.0724 59.1493V59.1467L72.0644 59.1547L72.0724 59.1493L72.0512 59.1626L58.3929 69.9925C54.5011 72.8767 48.419 73.4323 44.3039 71.4173C49.3813 74.065 54.6314 73.4164 63.6137 70.6145L99.6123 59.564L90.6086 56.7808Z" fill="#C8C4C3"/>
<path d="M92.9963 41.8472L83.4743 40.114C77.7696 39.056 75.0714 40.9009 69.5316 45.2365C69.0424 45.5927 55.3283 56.6858 55.3283 56.6858L39.9315 69.108L44.2672 71.4021C48.3875 73.4383 54.4963 72.8854 58.396 69.9932L72.0543 59.1633L72.0729 59.15L72.0649 59.1553L92.9963 41.8472Z" fill="#8F174F"/>
<path d="M58.2373 46.5223L26.2422 56.7806L39.9324 45.8922L70.3831 36.9551L58.2373 46.5223ZM72.7835 58.5616L39.935 69.1071L54.8401 57.0783L87.9995 45.98L72.7835 58.5616Z" fill="#B4175E"/>
</g>
<defs>
<clipPath id="clip0_2133_636">
<rect width="87" height="48" fill="white" transform="translate(13 26)"/>
</clipPath>
</defs>
</svg>
