<svg width="100" height="100" viewBox="0 0 100 100" fill="none" xmlns="http://www.w3.org/2000/svg">
<rect width="100" height="100" fill="white"/>
<path d="M81.8405 79.7589V73.9755H46.3253C33.3231 73.9707 22.7838 63.4277 22.7838 50.424L22.7972 21H17L17.0016 50.3783C17 66.6378 30.0782 79.7593 46.3406 79.7593L81.8405 79.7589Z" fill="#E2241C"/>
<path d="M46.1303 69.6161C35.5651 69.6125 27 60.9782 27 50.4114C27 50.4066 27 50.3993 27.0036 50.3961L27.0142 21H32.9117V50.3961C32.9117 57.7131 38.8201 63.6575 46.1355 63.6575H46.1889L81.6402 63.628V69.6161H46.1303Z" fill="#E2241C"/>
<path d="M34 21H43.2702L82.0595 54.5479V62.6947L34 21ZM50.2814 21H59.5516L82.0595 40.2755V48.4688L50.2814 21ZM66.5625 21H75.8327L82.0587 26.1823V34.3756L66.5625 21Z" fill="black"/>
</svg>
