<svg xmlns="http://www.w3.org/2000/svg" id="prefix__snla-logo" width="260.042" height="51.667" viewBox="0 0 409.87 63.25"><defs><style>.cls-1{fill:#fff;}.cls-2{fill:#004587;}.cls-3{fill:#dd052b;}</style></defs><g id="Layer_2" data-name="Layer 2"><g id="Layer_1-2" data-name="Layer 1"><path class="cls-1" d="M131.4,16.83H81.73a20.62,20.62,0,0,0-12.29-5.72V3.38A3.45,3.45,0,0,0,66,0,28.63,28.63,0,0,0,50.67,4.75,32.66,32.66,0,0,0,39.43,16.82H3.37A3.38,3.38,0,0,0,1,22.59L6.39,28a6.55,6.55,0,0,0,4.27,1.82h25.1c0,.72-.08,1.32-.08,1.86,0,.84.06,1.78.16,2.86H21.07a3.38,3.38,0,0,0-3.38,3.37,3.34,3.34,0,0,0,.93,2.32s4.55,4.56,5.47,5.47a6.43,6.43,0,0,0,4.17,1.77H54.11a20.5,20.5,0,0,0,11.18,4.71v7.61a3.43,3.43,0,0,0,3.46,3.47c10.07,0,20.49-6.34,26-15.79h11.72a6.43,6.43,0,0,0,4.12-1.68c0-.05,5-5,5.59-5.59a3.43,3.43,0,0,0,.89-2.28,3.37,3.37,0,0,0-3.31-3.37H98.88a27.65,27.65,0,0,0,.17-3c0-.52,0-1.1-.07-1.77h25.24a6.5,6.5,0,0,0,4-1.66l5.65-5.66a3.41,3.41,0,0,0,.91-2.29A3.36,3.36,0,0,0,131.4,16.83Z"/><path class="cls-2" d="M66.88,59.78a1.86,1.86,0,0,0,1.87,1.88c9.91,0,20-6.44,25.11-15.8h12.6a4.89,4.89,0,0,0,3.05-1.26L115,39.07a1.74,1.74,0,0,0,.45-1.17,1.78,1.78,0,0,0-1.75-1.78H97.11a30.38,30.38,0,0,0,.35-4.54,29.82,29.82,0,0,0-.21-3.35h27A4.94,4.94,0,0,0,127.12,27l5.58-5.58a1.8,1.8,0,0,0,.46-1.19,1.77,1.77,0,0,0-1.76-1.78H82.67a20.23,20.23,0,0,1-15.3,33.46h-.49Z"/><path class="cls-3" d="M7.52,26.87a5,5,0,0,0,3.14,1.36H37.49a27.81,27.81,0,0,0,.13,7.89H21.07a1.79,1.79,0,0,0-1.79,1.78,1.75,1.75,0,0,0,.49,1.22l5.43,5.44a4.87,4.87,0,0,0,3.06,1.3H53a20.23,20.23,0,0,1,14.4-34.45h.48v-8A1.85,1.85,0,0,0,66,1.59c-10.17,0-20.84,7-25.68,16.82h-37a1.78,1.78,0,0,0-1.78,1.78,1.76,1.76,0,0,0,.53,1.27Z"/><path class="cls-2" d="M58.51,31.59l-7,5.12A1,1,0,0,0,51.11,38l2.57,4.44a1,1,0,0,0,1.26.31l8-3.51.95,8.62a1,1,0,0,0,.89,1h5.12a1,1,0,0,0,.91-.95l.95-8.66,7.93,3.49a1,1,0,0,0,1.3-.28L83.54,38a1,1,0,0,0-.37-1.25l-7-5.15,7-5.13a1,1,0,0,0,.42-1.27L81,20.75a1,1,0,0,0-1.26-.31l-8,3.51-.95-8.61a1,1,0,0,0-.89-1H64.78a1,1,0,0,0-.91.95L62.92,24,55,20.46a1,1,0,0,0-1.3.28l-2.57,4.44a1,1,0,0,0,.37,1.25Z"/><path class="cls-2" d="M58.51,31.59l-7,5.12A1,1,0,0,0,51.11,38l2.57,4.44a1,1,0,0,0,1.26.31l8-3.51.95,8.62a1,1,0,0,0,.89,1h5.12a1,1,0,0,0,.91-.95l.95-8.66,7.93,3.49a1,1,0,0,0,1.3-.28L83.54,38a1,1,0,0,0-.37-1.25l-7-5.15,7-5.13a1,1,0,0,0,.42-1.27L81,20.75a1,1,0,0,0-1.26-.31l-8,3.51-.95-8.61a1,1,0,0,0-.89-1H64.78a1,1,0,0,0-.91.95L62.92,24,55,20.46a1,1,0,0,0-1.3.28l-2.57,4.44a1,1,0,0,0,.37,1.25Z"/><path class="cls-1" d="M66.72,43.37l.09,1.84c0,.11.22.13.39.13s.4,0,.4-.13l.14-3.46A2,2,0,0,0,66.72,43.37Z"/><path class="cls-1" d="M65.76,19.83a4,4,0,0,1,1.29-.2,3.62,3.62,0,0,1,1.6.29l0-.55c.07-1.22-.66-1.23-1.47-1.23s-1.54,0-1.46,1.23Z"/><path class="cls-1" d="M67.39,23.55l-.2,0-.35.05c-.74.1-.92.18-.92.6v-.07L66.16,29c1.08-.59,2.19-1.69,2.19-2.52l.14-3.15A5.87,5.87,0,0,1,67.39,23.55Z"/><path class="cls-1" d="M66.35,34.77l.14,3.07A3.67,3.67,0,0,0,68,35.42l.1-2.72C67.18,33.19,66.31,34.11,66.35,34.77Z"/><path class="cls-1" d="M68.62,35.2A3.64,3.64,0,0,1,69.68,38c0,2.43-3.4,2.53-3.4,4.88a2.54,2.54,0,0,1-.73-1.63c0-2.38,2.2-2.68,2.79-4.38A3.29,3.29,0,0,0,68.62,35.2Z"/><path class="cls-1" d="M69,26.74a2.86,2.86,0,0,0,0-.66,3,3,0,0,1,1.21,2.48c0,3.62-4.42,3.13-4.42,6A8.5,8.5,0,0,0,65.91,36a4.35,4.35,0,0,1-1.65-3.25C64.26,29.75,68.79,29.39,69,26.74Z"/><path class="cls-1" d="M68.37,42.46c.75.45.93.82.9,1.11s-.25.52-1,.18Z"/><path class="cls-1" d="M69,21.43c0-.66-.85-1-1.93-1a3.43,3.43,0,0,0-3.46,3.17,4.55,4.55,0,0,0,1.79,3.75s-.13-2.85-.13-3.62,1.07-.89,1.87-1S69.05,22.33,69,21.43Zm-1.53.51h-.1a.35.35,0,0,1-.31-.19h0v0a.2.2,0,0,1,0-.11h0a.34.34,0,1,1,.68,0A.34.34,0,0,1,67.45,21.94Z"/><path class="cls-2" d="M161,33.37l-5.92-9.17v9.17h-2.92V18.42h2.61l5.92,9.16V18.42h2.92V33.37Z"/><path class="cls-2" d="M176.94,31.86a5.8,5.8,0,0,1-8.08,0c-1.51-1.51-1.47-3.38-1.47-6s0-4.45,1.47-6a5.8,5.8,0,0,1,8.08,0c1.51,1.51,1.49,3.38,1.49,6S178.45,30.35,176.94,31.86ZM174.78,21.7a2.44,2.44,0,0,0-1.87-.8,2.48,2.48,0,0,0-1.89.8c-.57.63-.71,1.32-.71,4.2s.14,3.57.71,4.2a2.48,2.48,0,0,0,1.89.8,2.44,2.44,0,0,0,1.87-.8c.57-.63.73-1.32.73-4.2S175.35,22.33,174.78,21.7Z"/><path class="cls-2" d="M190.15,33.37l-2.92-6h-2.1v6h-2.92V18.42h5.86A4.52,4.52,0,0,1,192.92,23a4,4,0,0,1-2.73,3.93l3.34,6.44ZM187.88,21h-2.75V25h2.75a2,2,0,1,0,0-3.94Z"/><path class="cls-2" d="M200.86,33.5a7,7,0,0,1-5.46-2l1.89-1.89a4.93,4.93,0,0,0,3.61,1.26c1.72,0,2.65-.66,2.65-1.85a1.67,1.67,0,0,0-.46-1.26,2.3,2.3,0,0,0-1.33-.53L200,27a5.09,5.09,0,0,1-2.9-1.24A4,4,0,0,1,196,22.83c0-2.66,2-4.53,5.21-4.53A6.41,6.41,0,0,1,206,20l-1.85,1.83a4.14,4.14,0,0,0-3.07-1c-1.55,0-2.31.86-2.31,1.89a1.47,1.47,0,0,0,.44,1.07,2.67,2.67,0,0,0,1.39.59l1.76.25a5,5,0,0,1,2.86,1.15A4.18,4.18,0,0,1,206.4,29C206.4,31.86,204,33.5,200.86,33.5Z"/><path class="cls-2" d="M218.65,33.37l-3.85-6.8-1.93,2.31v4.49H210V18.42h2.92v6.51l5.27-6.51h3.55l-4.95,5.95,5.31,9Z"/><path class="cls-2" d="M230.39,33.37V18.42h2.92V30.77h6.78v2.6Z"/><path class="cls-2" d="M248.28,33.5a5.19,5.19,0,0,1-5.5-5.25V18.42h2.92v9.72a2.6,2.6,0,1,0,5.18,0V18.42h2.9v9.83A5.2,5.2,0,0,1,248.28,33.5Z"/><path class="cls-2" d="M260.75,21V24.7h5.9v2.6h-5.9v6.07h-2.91V18.42h9.84V21Z"/><path class="cls-2" d="M276.73,21V33.37h-2.92V21h-3.9V18.42h10.73V21Z"/><path class="cls-2" d="M291.05,33.37l-.88-2.64h-5.31l-.9,2.64h-3l5.44-14.95h2.29l5.46,14.95Zm-3.48-10.54-1.89,5.44h3.72Z"/><path class="cls-2" d="M307.37,33.37V24.66l-2.86,5.67h-2l-2.88-5.67v8.71h-2.91V18.42h2.87l3.91,8.09,3.88-8.09h2.88V33.37Z"/><path class="cls-2" d="M320.83,33.37h-6.25V18.42h6c2.92,0,4.62,1.64,4.62,4.2a3.46,3.46,0,0,1-1.85,3.09,3.47,3.47,0,0,1,2.06,3.36C325.41,31.86,323.5,33.37,320.83,33.37ZM320.35,21h-2.86v3.44h2.86a1.73,1.73,0,1,0,0-3.44Zm.19,6.07h-3.05v3.67h3.05a1.77,1.77,0,0,0,1.95-1.85A1.75,1.75,0,0,0,320.54,27.1Z"/><path class="cls-2" d="M334.46,33.5a5.2,5.2,0,0,1-5.5-5.25V18.42h2.92v9.72a2.6,2.6,0,1,0,5.18,0V18.42H340v9.83A5.19,5.19,0,0,1,334.46,33.5Z"/><path class="cls-2" d="M344,33.37V18.42h2.91V30.77h6.79v2.6Z"/><path class="cls-2" d="M365.39,33.37l-.88-2.64H359.2l-.9,2.64h-3.05l5.44-14.95H363l5.46,14.95Zm-3.48-10.54L360,28.27h3.71Z"/><path class="cls-2" d="M379.92,33.37,374,24.2v9.17h-2.91V18.42h2.6l5.92,9.16V18.42h2.92V33.37Z"/><path class="cls-2" d="M390.93,33.5a7,7,0,0,1-5.46-2l1.89-1.89A4.91,4.91,0,0,0,391,30.9c1.72,0,2.65-.66,2.65-1.85a1.67,1.67,0,0,0-.46-1.26,2.33,2.33,0,0,0-1.33-.53L390,27a5.09,5.09,0,0,1-2.9-1.24,4,4,0,0,1-1.07-2.94c0-2.66,2-4.53,5.2-4.53A6.4,6.4,0,0,1,396.09,20l-1.84,1.83a4.14,4.14,0,0,0-3.07-1c-1.55,0-2.31.86-2.31,1.89a1.47,1.47,0,0,0,.44,1.07,2.67,2.67,0,0,0,1.39.59l1.76.25a5,5,0,0,1,2.86,1.15A4.18,4.18,0,0,1,396.47,29C396.47,31.86,394.06,33.5,390.93,33.5Z"/><path class="cls-2" d="M400,33.37V18.42h9.85V21h-6.93v3.5h5.9v2.61h-5.9v3.63h6.93v2.6Z"/><path class="cls-2" d="M156.18,54.24A5.34,5.34,0,0,1,152,52.73l1.44-1.44a3.73,3.73,0,0,0,2.75,1c1.32,0,2-.49,2-1.41a1.28,1.28,0,0,0-.35-1,1.7,1.7,0,0,0-1-.4l-1.38-.19a3.92,3.92,0,0,1-2.21-.94,3.06,3.06,0,0,1-.81-2.25c0-2,1.5-3.45,4-3.45A4.86,4.86,0,0,1,160.12,44l-1.41,1.39a3.17,3.17,0,0,0-2.34-.79c-1.18,0-1.76.66-1.76,1.44a1.1,1.1,0,0,0,.34.82,1.9,1.9,0,0,0,1.05.45l1.35.19a3.81,3.81,0,0,1,2.18.88,3.23,3.23,0,0,1,.88,2.42C160.41,53,158.57,54.24,156.18,54.24Z"/><path class="cls-2" d="M167.46,44.73v9.41h-2.22V44.73h-3v-2h8.18v2Z"/><path class="cls-2" d="M172.85,54.14V42.74h2.23v11.4Z"/><path class="cls-2" d="M180.56,44.73v2.8h4.5v2h-4.5v4.63h-2.22V42.74h7.51v2Z"/><path class="cls-2" d="M192.74,44.73v9.41h-2.22V44.73h-3v-2h8.18v2Z"/><path class="cls-2" d="M198.13,54.14V42.74h7.51v2h-5.28V47.4h4.49v2h-4.49v2.77h5.28v2Z"/><path class="cls-2" d="M208.42,54.14V42.74h2.22v9.42h5.17v2Z"/><path class="cls-2" d="M221.36,54.24a5.35,5.35,0,0,1-4.16-1.51l1.44-1.44a3.74,3.74,0,0,0,2.76,1c1.31,0,2-.49,2-1.41a1.28,1.28,0,0,0-.35-1,1.67,1.67,0,0,0-1-.4l-1.37-.19a3.86,3.86,0,0,1-2.21-.94,3,3,0,0,1-.82-2.25c0-2,1.51-3.45,4-3.45A4.85,4.85,0,0,1,225.3,44l-1.41,1.39a3.16,3.16,0,0,0-2.33-.79c-1.19,0-1.76.66-1.76,1.44a1.09,1.09,0,0,0,.33.82,1.93,1.93,0,0,0,1.06.45l1.34.19a3.81,3.81,0,0,1,2.18.88,3.19,3.19,0,0,1,.88,2.42C225.59,53,223.75,54.24,221.36,54.24Z"/><path class="cls-2" d="M228.29,54.14V42.74h7.51v2h-5.29V47.4H235v2h-4.5v2.77h5.29v2Z"/><path class="cls-2" d="M245.32,54.14l-4.52-7v7h-2.22V42.74h2l4.52,7v-7h2.22v11.4Z"/></g></g></svg>