<svg width="100" height="100" viewBox="0 0 100 100" fill="none" xmlns="http://www.w3.org/2000/svg">
<rect width="100" height="100" fill="white"/>
<path fill-rule="evenodd" clip-rule="evenodd" d="M55.831 54.9205L56.2484 53.6826C56.3211 53.4706 56.5167 53.3486 56.6869 53.4102C56.8111 53.4555 56.8874 53.5763 56.8923 53.726C56.8953 53.7606 56.9007 53.8059 56.9268 53.848C57.2987 54.5355 58.1522 54.9947 59.1789 54.9199C60.0632 54.8551 60.4115 54.26 60.363 53.5436C60.3449 53.2743 60.1704 53.0014 60.1062 52.9095C59.9966 52.7617 58.1413 50.4469 58.1413 50.4469C57.7276 49.867 57.4568 49.1643 57.4047 48.3938C57.2587 46.2281 58.8057 44.3542 61.294 44.1737C62.8586 44.0567 64.0888 44.4857 65.0198 45.2305L64.6079 46.4489C64.5365 46.6609 64.3402 46.7829 64.1706 46.7212C64.0464 46.6759 63.9701 46.5552 63.9653 46.4061C63.9622 46.3709 63.9562 46.3256 63.9307 46.2834C63.5534 45.6028 62.8423 45.16 61.8216 45.2349C60.9367 45.299 60.443 45.945 60.4927 46.6936C60.503 46.8401 60.5381 46.9779 60.5884 47.1075C60.6944 47.3716 60.827 47.6226 60.9894 47.8478L62.0179 49.1279L62.4909 49.7248C62.9059 50.3035 63.4062 50.9904 63.4583 51.7622C63.6037 53.9266 62.0566 55.7999 59.5689 55.981C58.0044 56.098 56.7626 55.6659 55.831 54.9205ZM75.0463 54.9205L75.4637 53.6826C75.5351 53.4706 75.7314 53.3486 75.9022 53.4102C76.0258 53.4555 76.1021 53.5763 76.1069 53.726C76.11 53.7606 76.1154 53.8059 76.1415 53.848C76.5134 54.5355 77.3668 54.9947 78.3935 54.9199C79.2779 54.8551 79.6262 54.26 79.5783 53.5436C79.5602 53.2743 79.3857 53.0014 79.3215 52.9095C79.2119 52.7617 77.3559 50.4469 77.3559 50.4469C76.9422 49.867 76.6715 49.1643 76.6194 48.3938C76.4734 46.2281 78.0204 44.3542 80.5087 44.1737C82.0727 44.0567 83.3029 44.4857 84.2351 45.2305L83.8226 46.4489C83.7511 46.6609 83.5555 46.7829 83.3847 46.7212C83.2605 46.6759 83.1842 46.5552 83.1793 46.4061C83.1769 46.3709 83.1709 46.3256 83.1454 46.2834C82.7681 45.6028 82.0569 45.16 81.0357 45.2349C80.1513 45.299 79.6577 45.945 79.708 46.6936C79.7176 46.8401 79.7528 46.9779 79.8024 47.1075C79.909 47.3716 80.0417 47.6226 80.2034 47.8478L81.2326 49.1279L81.7062 49.7248C82.1199 50.3035 82.6215 50.9904 82.6724 51.7622C82.8189 53.9266 81.2719 55.7999 78.7836 55.981C77.2191 56.098 75.9779 55.6659 75.0463 54.9205ZM70.1182 45.6909L68.0254 50.7042C67.8431 51.1445 67.4984 51.9949 67.4791 52.5862C67.4791 53.0504 67.7565 53.3806 68.1193 53.4807C68.2271 53.5071 68.3634 53.5455 68.4797 53.5455C69.0691 53.5455 69.5803 53.1756 69.8002 52.646L73.1631 44.5474L77.0264 44.548C77.0749 44.5461 77.1233 44.5543 77.1706 44.575C77.3462 44.6524 77.4226 44.86 77.3529 45.043C77.3069 45.1632 77.216 45.2286 77.0567 45.2487C76.7684 45.2959 76.6497 45.433 76.5425 45.6953L74.6314 50.284C73.6338 52.9517 71.1291 54.8318 68.2077 54.8318C67.2416 54.8318 66.3312 54.6009 65.5092 54.1915C64.7327 53.7763 64.1948 52.9366 64.1948 51.9679C64.2148 50.974 64.4353 50.0097 64.8181 49.1574L66.3349 45.5091C66.3415 45.4915 66.347 45.4701 66.347 45.4494C66.35 45.3204 66.2537 45.2537 66.1931 45.2261C66.0526 45.1695 65.9635 45.0487 65.9635 44.9053C65.9635 44.7078 66.1483 44.548 66.376 44.548H70.5967C70.6452 44.5461 70.693 44.5543 70.7403 44.575C70.9159 44.6524 70.9922 44.86 70.9226 45.043C70.8765 45.1632 70.7857 45.2286 70.6264 45.2487C70.3381 45.2959 70.2254 45.4292 70.1182 45.6909ZM48.9779 49.2788H51.0101L50.4565 46.7911L48.9779 49.2788ZM15 54.4059L18.7452 45.3644C18.7512 45.3462 18.7573 45.3242 18.7579 45.3047C18.7603 45.1751 18.6646 45.1084 18.604 45.0808C18.4635 45.0241 18.3733 44.9034 18.3733 44.7593C18.3733 44.5624 18.5586 44.4027 18.787 44.4027H22.8616L25.1943 44.4102C25.9042 44.4102 26.5317 44.8442 26.7934 45.4814C26.943 45.8689 27.0211 46.2878 27.0211 46.7319C27.0211 47.4301 26.814 48.0787 26.4633 48.6158C25.7116 49.7726 24.4795 50.4658 23.1494 50.4658H20.3334L19.0874 53.5052C19.0813 53.5222 19.071 53.5442 19.071 53.565C19.071 53.6373 19.1207 53.7002 19.1801 53.7279C19.3218 53.7838 19.4109 53.9053 19.4109 54.048C19.4109 54.2462 19.2261 54.4059 18.9978 54.4059H15ZM20.8391 49.2845L22.4189 45.4733C22.4189 45.4733 22.6708 45.4663 22.7556 45.4802C22.9289 45.5085 23.0609 45.5506 23.1978 45.6337C23.8302 46.0199 23.8787 47.1163 23.3056 48.0831C22.8713 48.8171 22.2402 49.2751 21.4558 49.2807L20.8391 49.2845ZM30.5046 49.7984L29.0382 53.3354L32.4696 53.3379C32.7428 53.3379 32.9287 53.2404 33.0832 52.9837C33.1644 52.8384 33.3194 52.7586 33.4624 52.7586C33.6532 52.7586 33.807 52.9183 33.807 53.1158C33.807 53.1693 33.7949 53.219 33.7749 53.2643L33.2958 54.4078H24.7406L28.4555 45.4645C28.4597 45.4462 28.4676 45.3349 28.4658 45.3148C28.4555 45.1732 28.2986 45.0984 28.2386 45.0707C28.0975 45.0141 28.0085 44.8933 28.0085 44.7493C28.0085 44.5524 28.1666 44.4008 28.4319 44.4008H36.2232L35.6363 45.8129C35.5467 46.0299 35.3322 46.1432 35.1578 46.0652C35.0312 46.0079 34.9597 45.8752 34.9646 45.718C34.964 45.65 34.9434 45.5318 34.8277 45.4833C34.8101 45.4758 34.778 45.4733 34.7598 45.472H32.3054L30.922 48.8064L32.9851 48.8039C33.2183 48.7869 33.3527 48.7624 33.4927 48.5297C33.5726 48.385 33.7283 48.3045 33.8718 48.3045C34.0614 48.3045 34.1826 48.4642 34.1826 48.6618C34.1826 48.7152 34.1705 48.7649 34.1505 48.8102L33.5914 50.1381C33.5017 50.3563 33.2867 50.4689 33.1123 50.3916C32.9851 50.3349 32.9475 50.2016 32.953 50.045C32.9524 49.977 32.9312 49.8581 32.8161 49.8097C32.8033 49.8047 32.7852 49.8022 32.7688 49.8003L30.5046 49.7984ZM51.9793 54.4034C51.7509 54.4034 51.5698 54.2455 51.5698 54.048C51.5698 53.9046 51.6588 53.7838 51.7994 53.7279C51.8593 53.6996 51.9593 53.6323 51.9532 53.5033C51.9526 53.4813 51.9508 53.4731 51.9459 53.4536L51.2803 50.4941H48.2559L46.506 53.4379C46.4926 53.4681 46.4896 53.4832 46.4896 53.4964C46.4872 53.6266 46.5841 53.6926 46.6441 53.7197C46.7852 53.7763 46.8755 53.8958 46.8761 54.0399C46.8773 54.2367 46.6931 54.3978 46.4654 54.399L44.6694 54.4034C44.6204 54.4053 44.5713 54.3953 44.5234 54.3745C44.3484 54.2978 44.2666 54.0877 44.3411 53.9065C44.3968 53.7688 44.5168 53.7178 44.6767 53.6977C44.902 53.6599 45.0165 53.5712 45.1219 53.4077L50.6025 44.4046L53.9594 44.4039C54.1871 44.4039 54.3713 44.5681 54.3713 44.7656C54.3713 44.909 54.2816 45.0298 54.1411 45.0864C54.0805 45.1147 53.989 45.1795 53.9921 45.3091L56.0309 54.4034H51.9793ZM45.8039 49.2442C45.8518 49.2423 45.9002 49.2505 45.9487 49.2719C46.1231 49.3486 46.2007 49.5562 46.1298 49.7399C46.0844 49.86 45.9935 49.9255 45.8336 49.9456C45.5459 49.9928 45.4302 50.1198 45.323 50.3809L43.6663 54.3682H40.2998L40.1574 54.0984C39.2319 54.4984 38.445 54.6532 37.3699 54.6532C35.6605 54.6532 34.2637 53.2146 34.2637 51.4401C34.2637 51.3301 34.265 51.2212 34.2759 51.1149C34.7138 47.2081 37.9005 44.1548 41.7801 44.1548C43.6494 44.1548 44.7142 44.5128 46.2776 45.3028L45.8645 46.3268C45.8512 46.3583 45.836 46.3866 45.8185 46.413C45.7131 46.5728 45.5332 46.6502 45.3854 46.5791C45.2 46.4916 45.2424 46.3728 45.1546 46.1765C45.011 45.8538 44.8209 45.7513 44.6997 45.6645C44.0928 45.2669 43.6833 45.2519 43.269 45.2519C42.2895 45.2519 41.4028 45.633 40.7244 46.2614C39.2573 47.6113 38.2336 49.431 37.9465 51.6471C37.9368 51.7144 37.9314 51.7829 37.9314 51.8534C37.9314 52.6416 38.5365 53.2907 39.2961 53.2907C40.2271 53.2907 40.7371 52.7321 41.0945 51.905L41.7498 50.3073C41.7559 50.2897 41.765 50.233 41.765 50.2129C41.765 50.0047 41.6008 49.9462 41.5403 49.9179C41.3997 49.8613 41.3071 49.7443 41.3071 49.6009C41.3071 49.4034 41.4543 49.2436 41.7196 49.2436" fill="#D40C14"/>
</svg>
