<svg width="100" height="100" viewBox="0 0 100 100" fill="none" xmlns="http://www.w3.org/2000/svg">
<g clip-path="url(#clip0_2133_665)">
<rect width="100" height="100" fill="#F3F4F4"/>
<path d="M116.251 48.8309C116.326 50.7454 116.315 52.6622 116.218 54.5757C97.3818 55.3223 79.5203 56.4571 79.5203 57.7337C79.5203 58.988 96.9825 60.1115 115.602 60.8545C115.278 62.9819 114.856 65.0933 114.337 67.1817C95.9821 67.932 78.9492 69.0368 78.9492 70.28C78.9492 71.4782 94.851 72.5569 112.459 73.3072C111.653 75.5544 110.738 77.7382 109.711 79.8284C94.5898 80.5564 82.0921 81.527 82.0921 82.5869C82.0921 83.5763 93.0108 84.4908 106.774 85.1963C106.001 86.4543 105.195 87.6863 104.351 88.8507C103.455 90.12 102.481 91.378 101.451 92.6134C92.8464 93.2667 86.9412 94.0097 86.9412 94.8047C86.9412 95.4879 91.1703 96.126 97.688 96.6973C94.1307 100.217 89.9275 103.506 84.9739 106.377C84.9739 106.377 79.1396 101.352 74.3241 95.4841C70.0314 90.2506 60.9232 76.4541 58.7805 73.3669C56.634 70.2798 55.2232 69.3766 52.7146 70.2723C49.3514 71.4632 45.4431 72.0604 44.2411 72.0604C43.039 72.0604 42.3785 71.5938 44.3942 70.795C46.4024 69.9849 54.3421 66.237 58.2506 58.4915C62.6405 49.7679 58.7804 37.722 58.7804 37.722C57.3061 44.1612 53.9539 46.5651 53.9539 46.5651C55.0365 40.585 53.8569 35.165 50.9042 31.3612L49.2581 38.9315C49.2581 38.9315 48.2277 38.8791 45.6782 41.0218C43.1324 43.1683 42.4307 46.2964 42.4307 46.2964C44.4352 47.1025 46.8467 45.0907 46.8467 45.0907C43.767 56.6139 39.3512 65.9946 36.1296 70.9555C32.9119 75.9164 30.2578 77.7866 27.0326 79.0969C24.3114 80.1868 23.4155 78.9064 23.4155 78.9064C21.0377 76.8534 19.2609 74.972 17.4094 72.7361C17.4094 72.7361 17.26 72.4749 17.7602 72.4822C19.0854 72.5008 21.4445 70.2352 21.9597 69.2944C22.5496 68.2157 22.486 67.3907 22.1912 67.3346C21.9 67.2862 21.3961 68.141 18.8389 69.7535C16.2969 71.3624 15.1287 70.2464 14.2812 69.3503C13.6243 68.6375 14.2701 67.7564 14.6807 67.204C15.0689 66.7113 28.5183 41.6303 64.1072 15.2802C110.746 -19.2526 140.53 -28.5774 142.236 -29.2493C143.363 -29.6934 145.204 -30.2796 145.622 -29.8503C146.085 -29.3649 146.312 -28.9767 146.249 -28.4131C146.189 -27.8532 145.891 -27.5657 143.733 -26.6137C125.83 -18.7262 104.93 -5.57915 93.0558 2.07303C78.4529 9.18796 64.5106 19.3487 64.0029 19.5913C62.8794 20.2894 63.708 21.3049 64.3874 20.8792C89.0466 4.47713 117.958 -6.69534 149.907 -15.8483C151.434 -16.2812 152.27 -16.2812 152.524 -15.9453C152.811 -15.5721 152.934 -15.1466 152.979 -14.6762C153.02 -14.0901 152.535 -13.7803 151.225 -13.269C116.901 -0.517582 91.6036 11.3268 75.3321 22.2753C75.3321 22.2753 73.6487 23.2906 73.6262 24.4664C73.6189 24.9143 74.5296 24.9666 74.5296 24.9666C82.6747 25.1122 93.5633 25.5901 98.7447 25.8924C98.7447 25.8924 98.0055 28.5166 93.0446 30.6294C89.2147 32.2644 85.6685 32.0031 82.1595 32.0329C81.3794 32.0179 80.7187 32.8056 81.342 33.6454C81.6556 34.0636 89.1211 46.0835 116.251 48.8309Z" fill="#660033"/>
</g>
<defs>
<clipPath id="clip0_2133_665">
<rect width="100" height="100" fill="white"/>
</clipPath>
</defs>
</svg>
