<svg width="100" height="100" viewBox="0 0 100 100" fill="none" xmlns="http://www.w3.org/2000/svg">
<rect width="100" height="100" fill="#FE8C00"/>
<path d="M39.6333 36.2505C40.6336 36.1139 40.9446 36.0833 41.9717 36.0201C42.8125 35.9684 43.9673 36.019 44.7742 36.1429C47.3613 36.5401 49.0103 37.76 49.7718 39.8399C49.9849 40.4221 50.057 40.879 50.078 41.7798C50.0882 42.2216 50.1135 42.7116 50.1341 42.8687C50.2842 44.0124 50.9146 45.0504 51.8252 45.653C52.874 46.3471 54.1635 46.709 55.9665 46.8151C57.2073 46.8882 58.9525 46.7663 60.554 46.4949C63.4952 45.9965 65.4059 45.488 68.7418 44.316C69.0527 44.2068 71.4153 43.3306 71.7284 43.2084C71.8168 43.1739 72.1542 43.0451 72.4782 42.9222C72.8021 42.7994 73.1395 42.6708 73.2279 42.6366C73.3162 42.6023 73.5813 42.5007 73.8169 42.4108L75.0486 41.9405C75.4904 41.7718 76.1009 41.5397 76.4053 41.4248C76.7096 41.3098 76.9988 41.199 77.0479 41.1785C77.097 41.158 77.2897 41.083 77.4763 41.0118C77.6628 40.9406 77.9841 40.8166 78.1903 40.7363C78.602 40.576 81.0929 39.5775 81.5908 39.3732C81.7626 39.3027 82.0358 39.1909 82.1977 39.1248C83.0232 38.7876 85.5424 37.7074 86.4684 37.2935C86.7506 37.1674 86.9891 37.0718 86.9984 37.0811C87.0077 37.0904 86.9752 37.1995 86.926 37.3236C86.8769 37.4477 86.7371 37.8063 86.6154 38.1205C86.2601 39.0373 86.1544 39.3094 85.9844 39.7449C85.7786 40.2718 85.596 40.7415 85.4915 41.0122C85.4461 41.1301 85.3118 41.4755 85.1931 41.7798C84.62 43.2496 84.3557 43.9282 84.2545 44.1896C84.1937 44.3467 84.1258 44.4932 84.1035 44.5152C84.056 44.5622 82.7873 45.0827 80.4752 46.0035C78.4279 46.8189 78.3562 46.8468 76.1018 47.704C75.6306 47.8832 75.0843 48.092 74.888 48.1679C74.6916 48.2438 74.1856 48.4376 73.7634 48.5985L72.1747 49.2042C67.2079 51.0983 64.4344 51.8994 61.0003 52.4318C59.6079 52.6477 58.7311 52.7182 57.4481 52.7174C56.4933 52.7169 56.2372 52.7051 55.7523 52.6389C53.2215 52.294 51.6343 51.3074 50.7325 49.5187C50.2976 48.6561 50.1388 47.9355 50.0929 46.6173C50.0544 45.5106 49.9799 45.1494 49.6582 44.5109C49.1486 43.4996 48.3442 42.8661 46.9698 42.3938C45.9787 42.0531 44.9829 41.9151 43.5068 41.9138C41.2639 41.9117 38.8893 42.2713 35.5455 43.1194C33.3778 43.6692 31.5547 44.2106 28.9766 45.0703C27.2398 45.6493 24.8075 46.5145 23.8535 46.8925C23.8044 46.912 23.5072 47.0247 23.193 47.1431C21.5409 47.7656 19.6124 48.5281 17.8379 49.2604C17.3273 49.4711 16.8213 49.679 16.7133 49.7224C16.4516 49.8276 15.6289 50.1774 14.1873 50.7967L13 51.3066L13.0091 48.2L13.0182 45.0934L13.5538 44.8612C13.8483 44.7335 14.274 44.5525 14.4998 44.459C14.7256 44.3655 15.2638 44.1401 15.6958 43.9581C16.8495 43.4721 17.4094 43.2434 19.1945 42.529C21.8562 41.4638 23.9748 40.6653 26.4596 39.7907C28.3632 39.1207 31.4793 38.128 32.9929 37.7094C35.6748 36.9678 37.7999 36.5009 39.6333 36.2505Z" fill="white"/>
<path d="M33.6534 48.7956C36.6292 47.9875 39.1597 47.5016 41.2755 47.3319C42.0525 47.2695 43.5036 47.2685 44.1316 47.3297C46.097 47.5214 47.4899 48.0891 48.5061 49.1124C48.9631 49.5727 49.2699 50.0057 49.5403 50.5719C49.951 51.4322 50.0492 51.9028 50.093 53.222C50.1263 54.2274 50.1529 54.4243 50.3247 54.9358C50.6736 55.9752 51.3519 56.7294 52.4128 57.2574C53.7935 57.9445 55.6078 58.204 58.0193 58.0591C59.6334 57.9622 61.7181 57.613 63.8987 57.0744C64.4816 56.9305 64.8169 56.8404 65.695 56.5921C66.0433 56.4935 68.1496 55.795 68.7474 55.5798C69.2518 55.3982 71.1471 54.6976 71.4071 54.5966C71.4955 54.5623 71.8329 54.4337 72.1568 54.3108C72.4808 54.188 72.8182 54.0594 72.9066 54.0252C72.9949 53.9909 73.26 53.8896 73.4956 53.8001C73.7313 53.7105 74.2855 53.4988 74.7273 53.3295C75.1691 53.1603 75.7796 52.928 76.084 52.8133C76.3883 52.6986 76.8301 52.5303 77.0657 52.4393L77.7619 52.1703C78.2691 51.9743 80.9935 50.8874 81.3766 50.7283C81.5877 50.6406 81.7604 50.5748 81.7604 50.5822C81.7604 50.5896 81.6881 50.7809 81.5997 51.0074C81.5114 51.2338 81.366 51.6079 81.2766 51.8386C81.1873 52.0693 81.0041 52.5392 80.8695 52.8828C80.7349 53.2264 80.5252 53.7646 80.4034 54.0788C79.9529 55.2412 79.9218 55.3211 79.5287 56.3279C79.4367 56.5636 79.2902 56.9411 79.2031 57.1669C78.8949 57.9664 78.9539 57.8775 78.6534 57.9946C78.5067 58.0519 78.3304 58.1194 78.2617 58.1447C78.193 58.1699 77.5664 58.4095 76.8694 58.6769C74.542 59.5699 73.253 60.0621 72.3889 60.3878C71.9177 60.5654 71.4518 60.7418 71.3536 60.7798C70.0609 61.2804 67.5032 62.1641 66.4626 62.4697C63.9627 63.2037 61.6757 63.6627 59.2331 63.9208C58.6219 63.9854 56.348 63.9848 55.8415 63.9199C55.3359 63.8552 54.6777 63.7223 54.2489 63.5984C52.3681 63.0548 51.0877 61.8837 50.457 60.1301C50.2088 59.4398 50.1307 58.9561 50.0937 57.8809C50.071 57.2173 50.0466 56.933 49.9927 56.7028C49.7117 55.5016 49.003 54.6042 47.8981 54.0504C47.0531 53.627 46.3281 53.4175 45.1312 53.251C44.4918 53.162 42.5532 53.1625 41.6325 53.252C38.8218 53.5249 35.3298 54.3227 30.958 55.6907C30.2422 55.9147 27.9813 56.6635 27.4236 56.8614C25.887 57.4064 25.1258 57.6812 24.2952 57.991C23.8657 58.1512 23.442 58.3104 23.3537 58.3448C23.2051 58.4027 22.8641 58.5331 21.997 58.8636C20.8724 59.2923 18.023 60.4416 16.5526 61.0594C16.1207 61.241 15.5664 61.4732 15.321 61.5755C15.0755 61.6777 14.4604 61.9406 13.9541 62.1596C13.4478 62.3786 13.0261 62.5578 13.017 62.5578C13.0079 62.5578 13.0005 61.1641 13.0007 59.4607L13.001 56.3636L13.4916 56.1526C13.7614 56.0365 14.183 55.858 14.4284 55.7559C14.6739 55.6538 15.2281 55.4212 15.6601 55.2391C16.0921 55.057 16.5339 54.8719 16.6419 54.8278C16.7499 54.7837 17.023 54.6718 17.2488 54.5791C17.9277 54.3006 20.2105 53.3842 20.4976 53.275C20.6449 53.219 21.0385 53.0665 21.3723 52.9361C24.0317 51.8977 27.2061 50.7671 29.637 49.9924C30.0788 49.8516 30.4805 49.7226 30.5296 49.7058C30.9257 49.5701 32.6316 49.0731 33.6534 48.7956Z" fill="white"/>
</svg>
