<svg width="100" height="100" viewBox="0 0 100 100" fill="none" xmlns="http://www.w3.org/2000/svg">
<rect width="100" height="100" fill="white"/>
<path d="M38 72.2265L49.2221 61L60.4372 72.2265L49.2221 83.4393L38 72.2265Z" fill="#ED164A"/>
<path d="M38 27.2197L49.2221 16L60.4372 27.2197L49.2221 38.4394L38 27.2197Z" fill="#ED164A"/>
<path d="M61 49.2162L72.2221 38L83.4372 49.2162L72.2221 60.4325L61 49.2162Z" fill="#ED164A"/>
<path d="M16 49.2162L27.2221 38L38.4372 49.2162L27.2221 60.4325L16 49.2162Z" fill="#ED164A"/>
<path d="M29.4888 63.7123V58.7273L27 61.2164L29.4888 63.7123ZM31.9845 66.2049L34.4801 68.6974V53.7425L31.9845 56.2383V66.2049ZM36.9724 51.2532V71.1966L38.2151 72.4429L39.4578 71.1966V51.2532L38.2151 50L36.9724 51.2532ZM46.9346 58.7273V63.7123L49.4371 61.2164L46.9346 58.7273ZM41.9534 68.6973L44.4491 66.2047V56.2382L41.9534 53.7423V68.6973Z" fill="#ED164A"/>
<path d="M52.4956 40.7054V35.7273L50 38.2232L52.4956 40.7054ZM54.9878 43.2014L57.4834 45.694V30.7356L54.9878 33.2349V43.2014ZM59.9723 28.2497V48.1898L61.2219 49.4361L62.4646 48.1898V28.2497L61.2219 27L59.9723 28.2497ZM69.9414 35.7273V40.7054L72.437 38.2232L69.9414 35.7273ZM64.9569 45.6938L67.456 43.2012V33.2347L64.9569 30.7354V45.6938Z" fill="#ED164A"/>
<path d="M52.4956 63.7123V58.7273L50 61.2164L52.4956 63.7123ZM54.9878 66.2049L57.4834 68.6974V53.7425L54.9878 56.2383V66.2049ZM59.9723 51.2532V71.1966L61.2219 72.4429L62.4646 71.1966V51.2532L61.2219 50L59.9723 51.2532ZM69.9414 58.7273V63.7123L72.437 61.2164L69.9414 58.7273ZM64.9569 68.6973L67.456 66.2047V56.2382L64.9569 53.7423V68.6973Z" fill="#ED164A"/>
<path d="M29.4888 40.7054V35.7273L27 38.2232L29.4888 40.7054ZM31.9845 43.2014L34.4801 45.694V30.7356L31.9845 33.2349V43.2014ZM36.9724 28.2497V48.1898L38.2151 49.4361L39.4578 48.1898V28.2497L38.2151 27L36.9724 28.2497ZM46.9346 35.7273V40.7054L49.4371 38.2232L46.9346 35.7273ZM41.9534 45.6938L44.4491 43.2012V33.2347L41.9534 30.7354V45.6938Z" fill="#ED164A"/>
</svg>
