<svg width="100" height="100" viewBox="0 0 100 100" fill="none" xmlns="http://www.w3.org/2000/svg">
<rect width="100" height="100" fill="#FFCC00"/>
<path d="M49.2054 38.0737C49.7492 37.9114 50.3832 38.0156 50.8108 38.4012C51.1734 38.7387 51.3276 39.2434 51.3296 39.7292C51.3316 44.5033 51.3306 49.2775 51.3306 54.0516C51.3046 54.7667 51.4558 55.5689 51.0131 56.1908C50.5725 56.8328 49.6471 57.0021 48.9681 56.6636C48.4142 56.3881 48.1178 55.7532 48.1248 55.1533C48.1268 50.2149 48.1248 45.2755 48.1258 40.3371C48.1318 39.8964 48.0797 39.4387 48.236 39.0171C48.3912 38.5764 48.7548 38.2079 49.2054 38.0737ZM36.4854 47.0782C37.2986 45.9184 38.6536 45.2034 40.0517 45.0682C41.5369 44.9039 43.1754 45.1563 44.3261 46.1768C45.3947 47.1162 45.8714 48.5554 45.9686 49.9405C45.9986 50.4853 46.0787 51.0832 45.7943 51.5779C45.573 51.9685 45.0853 52.0717 44.6706 52.0747C42.6075 52.0787 40.5434 52.0717 38.4804 52.0777C38.6116 52.8448 38.9711 53.6671 39.7332 53.9895C40.7968 54.4422 41.9966 54.1758 43.0602 53.8573C43.4819 53.7322 43.9175 53.5769 44.3642 53.639C44.9871 53.7732 45.4298 54.4412 45.3587 55.0662C45.2986 55.5419 44.906 55.8844 44.5144 56.1107C43.7953 56.5093 42.9731 56.6686 42.1649 56.7637C40.6346 56.942 38.9771 56.8228 37.6641 55.9435C36.3632 55.1022 35.6181 53.605 35.4348 52.0967C35.2235 50.3781 35.4618 48.5163 36.4854 47.0782ZM39.5179 47.7923C38.7488 48.1969 38.5585 49.1333 38.4814 49.9224C39.9856 49.9235 41.4909 49.9204 42.9951 49.9235C42.938 49.1182 42.6696 48.2079 41.9035 47.8043C41.1704 47.4437 40.256 47.4477 39.5179 47.7923ZM24.0597 45.1533C24.6116 44.9981 25.2645 45.0912 25.6782 45.5108C26.0287 45.8554 26.1689 46.3571 26.1669 46.8368C26.1699 48.6095 26.1659 50.3811 26.1679 52.1528C26.1639 52.7918 26.4253 53.4728 26.9831 53.8253C27.4739 54.1438 28.0858 54.1728 28.6516 54.1067C29.1374 54.0456 29.6221 53.8183 29.9045 53.4057C30.223 52.955 30.268 52.3841 30.2741 51.8493C30.2751 50.1127 30.2731 48.3761 30.2741 46.6405C30.2791 46.0356 30.6436 45.4287 31.2175 45.2064C31.8414 44.955 32.6466 45.0742 33.0833 45.616C33.4238 46.0076 33.4899 46.5474 33.4809 47.0481C33.4698 48.6465 33.4929 50.2459 33.4698 51.8453C33.4368 53.2134 33.0662 54.6766 32.0247 55.632C30.908 56.6616 29.3066 56.9109 27.8414 56.8538C26.4914 56.8078 25.0562 56.4022 24.1369 55.3566C23.2936 54.4032 22.9771 53.0952 22.9631 51.8493C22.9651 50.1127 22.9601 48.3761 22.9651 46.6405C22.9731 45.9825 23.4178 45.3376 24.0597 45.1533ZM63.4167 45.1703C64.921 44.981 66.5605 45.0501 67.8864 45.8644C68.7988 46.4112 69.4197 47.3556 69.6881 48.3741C69.8724 49.0481 69.9335 49.7512 69.9345 50.4482C69.9325 51.9825 69.9335 53.5168 69.9345 55.0511C69.9435 55.5589 69.7783 56.0937 69.3897 56.4382C68.8158 56.951 67.8774 56.963 67.2815 56.4823C66.8909 56.1648 66.6866 55.653 66.7017 55.1543C66.7067 53.618 66.7017 52.0817 66.7047 50.5454C66.7077 49.8684 66.7327 49.1253 66.3211 48.5464C65.9846 48.0486 65.3747 47.8203 64.7928 47.7993C64.2179 47.7822 63.59 47.8924 63.1594 48.304C62.7588 48.7036 62.6195 49.2905 62.6215 49.8413C62.6245 51.5819 62.6205 53.3225 62.6245 55.0622C62.6255 55.4768 62.5354 55.9064 62.276 56.2399C61.7252 56.976 60.5014 57.0371 59.8704 56.3731C59.5549 56.0546 59.4147 55.598 59.4177 55.1573C59.4167 53.9885 59.4187 52.8208 59.4177 51.652C59.4288 50.5844 59.3456 49.4968 59.6341 48.4542C59.8744 47.4618 60.4493 46.5404 61.2966 45.9565C61.9275 45.5279 62.6666 45.2825 63.4167 45.1703ZM73.8003 46.4312C74.8939 45.4698 76.3832 45.0521 77.8203 45.0872C79.2284 45.0892 80.6646 45.3776 81.8984 46.0757C82.4663 46.3841 82.8919 46.982 82.8779 47.645C82.8779 50.951 82.8769 54.2579 82.8789 57.5649C82.8579 59.0611 82.3782 60.6485 81.2084 61.649C80.0336 62.6605 78.4242 62.957 76.916 62.937C75.7562 62.8879 74.5875 62.5954 73.589 61.9915C73.2284 61.7602 72.8879 61.4718 72.6786 61.0932C72.296 60.3871 72.7407 59.3796 73.5279 59.2024C74.1068 59.1122 74.6496 59.3957 75.1704 59.607C75.8774 59.9184 76.6486 60.0947 77.4237 60.0667C78.0847 60.0657 78.7938 59.9004 79.2735 59.4177C79.7192 58.954 79.8554 58.285 79.8504 57.6621C79.8484 57.0852 79.8454 56.5093 79.8494 55.9325C78.944 56.7287 77.6731 56.9199 76.5074 56.8448C75.2865 56.7697 74.0887 56.2249 73.2895 55.2875C72.1648 53.9986 71.8324 52.2049 71.9235 50.5404C72.0016 49.0031 72.6125 47.4457 73.8003 46.4312ZM77.1734 47.8253C76.6836 47.9094 76.2069 48.1258 75.8614 48.4883C75.2294 49.1733 75.0862 50.1518 75.0872 51.0481C75.1003 51.8543 75.1633 52.7307 75.6631 53.3997C76.1368 54.0156 76.9781 54.1558 77.7092 54.0987C78.4082 54.0647 79.0982 53.6841 79.4197 53.0471C80.0206 51.9074 79.8073 50.5794 79.8494 49.3436C79.8273 48.976 79.9595 48.5013 79.592 48.263C78.907 47.7582 77.9876 47.7041 77.1734 47.8253ZM11.1634 46.0036C11.5029 45.3456 12.3402 45.0892 13.0322 45.2304C13.582 45.3326 13.9736 45.8203 14.1108 46.3401C14.7438 48.4763 15.3787 50.6115 16.0077 52.7497C16.0417 52.8749 16.1008 52.9931 16.1689 53.1032C16.8319 50.9149 17.4749 48.7206 18.1238 46.5274C18.246 46.0577 18.4724 45.5639 18.9331 45.3436C19.6732 45.0061 20.6917 45.2454 21.1113 45.9685C21.3787 46.4482 21.3106 47.0351 21.1173 47.5279C20.217 50.0346 19.3337 52.5474 18.4363 55.0551C18.248 55.5379 18.0678 56.0516 17.6922 56.4262C17.3036 56.7958 16.7348 56.8328 16.226 56.8368C15.6612 56.8398 15.0322 56.7877 14.5986 56.3811C14.201 55.9996 13.9927 55.4718 13.8044 54.966C12.914 52.4502 12.0307 49.9325 11.1364 47.4197C10.9701 46.967 10.9301 46.4402 11.1634 46.0036ZM54.8269 45.3065C55.5009 45.0391 56.3572 45.2424 56.7678 45.8594C57.0121 46.2009 57.0682 46.6345 57.0662 47.0441C57.0622 49.7151 57.0642 52.3871 57.0652 55.0581C57.0642 55.5048 56.953 55.9715 56.6486 56.311C56.0717 56.992 54.892 57.0111 54.2911 56.3531C54.0026 56.0296 53.8554 55.594 53.8584 55.1633C53.8594 52.3902 53.8604 49.616 53.8584 46.8428C53.8414 46.2019 54.2129 45.5379 54.8269 45.3065Z" fill="black"/>
<path d="M85.2794 39.1199C85.7862 38.9597 86.345 38.9597 86.8518 39.1219C87.4817 39.3242 87.9805 39.8881 88.0906 40.5421C88.1597 41.1039 88.1347 41.7248 87.7902 42.2005C87.1192 43.14 85.662 43.2681 84.7466 42.6282C83.5699 41.7519 83.8112 39.5506 85.2794 39.1199Z" fill="white"/>
</svg>
