<svg width="101" height="29" viewBox="0 0 101 29" fill="none" xmlns="http://www.w3.org/2000/svg">
<path fill-rule="evenodd" clip-rule="evenodd" d="M62.3286 2.95276C61.717 3.28445 60.7455 4.1906 59.623 5.43887C61.0379 6.8582 62.6583 8.69116 64.4045 11.0184C67.1612 7.35508 68.9649 4.79637 70.2697 3.8474C71.5744 2.89668 75.8011 1.66645 83.2432 0.421875C72.0539 1.42454 63.9968 2.04617 62.3286 2.95276Z" fill="#4EA322"/>
<path fill-rule="evenodd" clip-rule="evenodd" d="M56.1395 2.40091C54.3285 1.09851 44.086 0.313209 31.0945 0C37.311 0.919848 45.2738 2.2442 47.5665 3.67374C49.39 4.81203 51.3754 6.94711 54.7626 10.8286L64.4037 11.0184C60.9454 6.41307 57.9821 3.72743 56.1395 2.40091ZM84.0222 15.3605C82.8785 14.1981 81.2719 13.6756 78.8182 13.6756C76.379 13.6756 74.7652 14.1946 73.5941 15.3575L73.5866 15.3605C72.4876 16.5147 72.0948 18.0775 72.0948 21.3402C72.0948 24.5986 72.4874 26.1611 73.5829 27.3088C74.7652 28.4836 76.379 29 78.8182 29C81.2719 29 82.8745 28.4836 84.0222 27.3151C85.2769 26.0414 85.5138 24.2319 85.5138 21.3402C85.5138 18.4472 85.2769 16.636 84.0222 15.3607V15.3605ZM78.8182 26.2746C77.9379 26.2746 77.2595 26.1887 76.7291 26.0146L82.5161 18.422C82.6835 19.1553 82.7017 20.0991 82.7017 21.2795C82.7017 24.8333 82.5538 26.2746 78.8182 26.2746ZM78.8182 16.3762C79.8283 16.3762 80.568 16.4773 81.1214 16.6964L75.1921 24.484C74.933 23.7 74.9065 22.6395 74.9065 21.2795C74.9065 17.7921 75.0569 16.376 78.8182 16.376V16.3762ZM56.8136 24.9389C56.5162 25.8451 55.4894 26.2526 53.4917 26.2526C50.2091 26.2526 49.7807 25.0289 49.7344 22.2574H59.8034V21.6914C59.8034 19.3216 59.7374 17.3958 58.8957 15.9741C57.972 14.4061 56.2168 13.6743 53.3752 13.6743C47.9769 13.6743 46.9207 16.4873 46.9207 21.3578C46.9207 23.6846 47.1069 25.5071 48.0238 26.8273C49.0171 28.2532 50.7471 28.9161 53.4599 28.9161C57.1736 28.9161 59.2217 27.6059 59.5529 25.0159L59.5667 24.9389H56.8136ZM53.3752 16.3132C56.154 16.3132 56.9435 17.0081 57.0391 19.6192H49.7739C49.8971 17.1587 50.8285 16.3132 53.3752 16.3132ZM100.914 21.6914C100.914 19.3216 100.846 17.3958 100.009 15.9741C99.0827 14.4061 97.3289 13.6743 94.4874 13.6743C89.0869 13.6743 88.0329 16.4873 88.0329 21.3578C88.0329 23.6846 88.22 25.5071 89.1376 26.8273C90.1277 28.2532 91.8554 28.9161 94.5745 28.9161C98.2886 28.9161 100.336 27.6059 100.669 25.0159L100.678 24.9389H97.9242C97.6325 25.8451 96.6066 26.2526 94.603 26.2526C91.3234 26.2526 90.8933 25.0289 90.8426 22.2574H100.914V21.6914ZM90.8856 19.6189C91.0062 17.1589 91.9407 16.3132 94.4874 16.3132C97.2622 16.3132 98.0535 17.0081 98.1491 19.6192H90.8856V19.6189ZM28.2442 28.6907V14.2713H25.4382V28.6907H28.2442ZM11.9314 19.1334L15.1204 28.6872H18.1738L22.9555 14.267H19.9999L16.626 24.4179L13.2545 14.267H10.6135L7.23982 24.4179L3.86987 14.267H0.914062L5.68942 28.6872H8.78518L11.9314 19.1334ZM44.3049 22.8091V8.26146H41.4956V14.4287C40.5155 13.9492 39.2902 13.718 37.6705 13.718C35.2477 13.718 33.6475 14.234 32.4782 15.3916C31.3748 16.5401 30.9887 18.097 30.9887 21.3402C30.9887 24.5788 31.4143 26.2381 32.4621 27.2768C33.5146 28.3184 35.0839 28.9591 37.6705 28.9591C40.1137 28.9591 41.6948 28.4284 42.8495 27.2844C43.8282 26.3131 44.3047 24.3586 44.3047 22.8091H44.3049ZM37.6705 16.4145C41.4052 16.4145 41.5537 17.8208 41.5537 21.2839C41.5537 24.7174 41.396 26.2381 37.6705 26.2381C33.9498 26.2381 33.7936 24.7174 33.7936 21.2839C33.7936 17.8208 33.9428 16.4145 37.6705 16.4145ZM65.3579 28.6872H62.5465L62.5443 14.2661H65.3704V15.3144C66.5063 14.6485 67.4258 14.2661 69.5785 14.2661C70.0802 14.2661 70.3193 14.2737 70.4919 14.2868V17.0113C70.2386 16.9726 69.8834 16.952 69.5785 16.952C68.8854 16.952 67.2891 17.0257 66.3595 17.9518C65.7054 18.5974 65.3538 19.6598 65.3538 21.5195L65.3575 28.6872H65.3579Z" fill="#00482D"/>
</svg>
